  0
SECTION
  2
HEADER
  9
$ANGBASE
  50
0.0
  9
$ANGDIR
  70
1
  9
$MEASUREMENT
  70
1
  0
ENDSEC
  0
SECTION
  2
TABLES
  0
TABLE
  2
LTYPE
  70
4
  0
LTYPE
  5
40F
  2
CONTINUOUS
  70
0
  3
Solid line
  72
65
  73
0
  40
0.0
  0
LTYPE
  5
410
  2
DASHDOT
 70
0
  3
Dash Dot ____ _ ____ _
 72
65
 73
4
 40
2.0
 49
1.25
 49
-0.25
 49
0.25
 49
-0.25
  0
LTYPE
  5
411
  2
DASHED
 70
0
  3
Dashed __ __ __ __ __
 72
65
 73
2
 40
0.75
 49
0.5
 49
-0.25
  0
LTYPE
  5
43B
  2
DOTTED
 70
0
  3
Dotted .  .  .  .
 72
65
 73
2
 40
0.2
 49
0.0
 49
-0.2
  0
ENDTAB
  0
TABLE
  2
STYLE
  70
4
  0
STYLE
  2
KICAD
  70
0
  40
0
  41
1
  42
1
  50
0
  71
0
  3
isocp.shx
  0
STYLE
  2
KICADB
  70
0
  40
0
  41
1
  42
1
  50
0
  71
0
  3
isocp.shx
  0
STYLE
  2
KICADI
  70
0
  40
0
  41
1
  42
1
  50
15
  71
0
  3
isocp.shx
  0
STYLE
  2
KICADBI
  70
0
  40
0
  41
1
  42
1
  50
15
  71
0
  3
isocp.shx
  0
ENDTAB
  0
TABLE
  2
LAYER
  70
1
  0
LAYER
  2
BLACK
  70
0
  62
7
  6
CONTINUOUS
  0
ENDTAB
  0
ENDSEC
  0
SECTION
  2
ENTITIES
0
LINE
8
BLACK
6
CONTINUOUS
10
98.8036
20
-115.214
11
98.8036
21
-115.214
0
LINE
8
BLACK
6
CONTINUOUS
10
98.8036
20
-115.214
11
98.2115
21
-115.156
0
LINE
8
BLACK
6
CONTINUOUS
10
98.2115
20
-115.156
11
98.2112
21
-115.156
0
LINE
8
BLACK
6
CONTINUOUS
10
98.2112
20
-115.156
11
98.2089
21
-115.155
0
LINE
8
BLACK
6
CONTINUOUS
10
98.2089
20
-115.155
11
98.2067
21
-115.155
0
LINE
8
BLACK
6
CONTINUOUS
10
98.2067
20
-115.155
11
97.6373
21
-114.983
0
LINE
8
BLACK
6
CONTINUOUS
10
97.6373
20
-114.983
11
97.6369
21
-114.983
0
LINE
8
BLACK
6
CONTINUOUS
10
97.6369
20
-114.983
11
97.6349
21
-114.982
0
LINE
8
BLACK
6
CONTINUOUS
10
97.6349
20
-114.982
11
97.6328
21
-114.981
0
LINE
8
BLACK
6
CONTINUOUS
10
97.6328
20
-114.981
11
97.1075
21
-114.702
0
LINE
8
BLACK
6
CONTINUOUS
10
97.1075
20
-114.702
11
97.1072
21
-114.702
0
LINE
8
BLACK
6
CONTINUOUS
10
97.1072
20
-114.702
11
97.1053
21
-114.7
0
LINE
8
BLACK
6
CONTINUOUS
10
97.1053
20
-114.7
11
97.1035
21
-114.699
0
LINE
8
BLACK
6
CONTINUOUS
10
97.1035
20
-114.699
11
96.6425
21
-114.323
0
LINE
8
BLACK
6
CONTINUOUS
10
96.6425
20
-114.323
11
96.6422
21
-114.323
0
LINE
8
BLACK
6
CONTINUOUS
10
96.6422
20
-114.323
11
96.6406
21
-114.321
0
LINE
8
BLACK
6
CONTINUOUS
10
96.6406
20
-114.321
11
96.639
21
-114.32
0
LINE
8
BLACK
6
CONTINUOUS
10
96.639
20
-114.32
11
96.2598
21
-113.861
0
LINE
8
BLACK
6
CONTINUOUS
10
96.2598
20
-113.861
11
96.2596
21
-113.861
0
LINE
8
BLACK
6
CONTINUOUS
10
96.2596
20
-113.861
11
96.2584
21
-113.859
0
LINE
8
BLACK
6
CONTINUOUS
10
96.2584
20
-113.859
11
96.2571
21
-113.857
0
LINE
8
BLACK
6
CONTINUOUS
10
96.2571
20
-113.857
11
95.9742
21
-113.334
0
LINE
8
BLACK
6
CONTINUOUS
10
95.9742
20
-113.334
11
95.974
21
-113.334
0
LINE
8
BLACK
6
CONTINUOUS
10
95.974
20
-113.334
11
95.9732
21
-113.332
0
LINE
8
BLACK
6
CONTINUOUS
10
95.9732
20
-113.332
11
95.9723
21
-113.33
0
LINE
8
BLACK
6
CONTINUOUS
10
95.9723
20
-113.33
11
95.7964
21
-112.761
0
LINE
8
BLACK
6
CONTINUOUS
10
95.7964
20
-112.761
11
95.7963
21
-112.761
0
LINE
8
BLACK
6
CONTINUOUS
10
95.7963
20
-112.761
11
95.7958
21
-112.759
0
LINE
8
BLACK
6
CONTINUOUS
10
95.7958
20
-112.759
11
95.7954
21
-112.756
0
LINE
8
BLACK
6
CONTINUOUS
10
95.7954
20
-112.756
11
95.7332
21
-112.165
0
LINE
8
BLACK
6
CONTINUOUS
10
95.7332
20
-112.165
11
95.7332
21
-112.165
0
LINE
8
BLACK
6
CONTINUOUS
10
95.7332
20
-112.165
11
95.7332
21
-112.163
0
LINE
8
BLACK
6
CONTINUOUS
10
95.7332
20
-112.163
11
95.7331
21
-112.162
0
LINE
8
BLACK
6
CONTINUOUS
10
95.7331
20
-112.162
11
95.733
21
-112.142
0
LINE
8
BLACK
6
CONTINUOUS
10
95.733
20
-112.142
11
95.733
21
-112.142
0
LINE
8
BLACK
6
CONTINUOUS
10
95.733
20
-112.142
11
95.733
21
-51.2433
0
LINE
8
BLACK
6
CONTINUOUS
10
95.733
20
-51.2433
11
95.7331
21
-51.2421
0
LINE
8
BLACK
6
CONTINUOUS
10
95.7331
20
-51.2421
11
95.7331
21
-51.2421
0
LINE
8
BLACK
6
CONTINUOUS
10
95.7331
20
-51.2421
11
95.7912
21
-50.65
0
LINE
8
BLACK
6
CONTINUOUS
10
95.7912
20
-50.65
11
95.7912
21
-50.6497
0
LINE
8
BLACK
6
CONTINUOUS
10
95.7912
20
-50.6497
11
95.7917
21
-50.6474
0
LINE
8
BLACK
6
CONTINUOUS
10
95.7917
20
-50.6474
11
95.7921
21
-50.6452
0
LINE
8
BLACK
6
CONTINUOUS
10
95.7921
20
-50.6452
11
95.9641
21
-50.0758
0
LINE
8
BLACK
6
CONTINUOUS
10
95.9641
20
-50.0758
11
95.9642
21
-50.0754
0
LINE
8
BLACK
6
CONTINUOUS
10
95.9642
20
-50.0754
11
95.965
21
-50.0734
0
LINE
8
BLACK
6
CONTINUOUS
10
95.965
20
-50.0734
11
95.9659
21
-50.0713
0
LINE
8
BLACK
6
CONTINUOUS
10
95.9659
20
-50.0713
11
96.2452
21
-49.546
0
LINE
8
BLACK
6
CONTINUOUS
10
96.2452
20
-49.546
11
96.2452
21
-49.546
0
LINE
8
BLACK
6
CONTINUOUS
10
96.2452
20
-49.546
11
96.2452
21
-49.546
0
LINE
8
BLACK
6
CONTINUOUS
10
96.2452
20
-49.546
11
96.2453
21
-49.5457
0
LINE
8
BLACK
6
CONTINUOUS
10
96.2453
20
-49.5457
11
96.2466
21
-49.5439
0
LINE
8
BLACK
6
CONTINUOUS
10
96.2466
20
-49.5439
11
96.2479
21
-49.542
0
LINE
8
BLACK
6
CONTINUOUS
10
96.2479
20
-49.542
11
96.6238
21
-49.081
0
LINE
8
BLACK
6
CONTINUOUS
10
96.6238
20
-49.081
11
96.6239
21
-49.081
0
LINE
8
BLACK
6
CONTINUOUS
10
96.6239
20
-49.081
11
96.6239
21
-49.081
0
LINE
8
BLACK
6
CONTINUOUS
10
96.6239
20
-49.081
11
96.6241
21
-49.0807
0
LINE
8
BLACK
6
CONTINUOUS
10
96.6241
20
-49.0807
11
96.6257
21
-49.0791
0
LINE
8
BLACK
6
CONTINUOUS
10
96.6257
20
-49.0791
11
96.6273
21
-49.0775
0
LINE
8
BLACK
6
CONTINUOUS
10
96.6273
20
-49.0775
11
97.0856
21
-48.6983
0
LINE
8
BLACK
6
CONTINUOUS
10
97.0856
20
-48.6983
11
97.0859
21
-48.6981
0
LINE
8
BLACK
6
CONTINUOUS
10
97.0859
20
-48.6981
11
97.0878
21
-48.6969
0
LINE
8
BLACK
6
CONTINUOUS
10
97.0878
20
-48.6969
11
97.0897
21
-48.6956
0
LINE
8
BLACK
6
CONTINUOUS
10
97.0897
20
-48.6956
11
97.613
21
-48.4127
0
LINE
8
BLACK
6
CONTINUOUS
10
97.613
20
-48.4127
11
97.613
21
-48.4127
0
LINE
8
BLACK
6
CONTINUOUS
10
97.613
20
-48.4127
11
97.613
21
-48.4127
0
LINE
8
BLACK
6
CONTINUOUS
10
97.613
20
-48.4127
11
97.6133
21
-48.4125
0
LINE
8
BLACK
6
CONTINUOUS
10
97.6133
20
-48.4125
11
97.6154
21
-48.4116
0
LINE
8
BLACK
6
CONTINUOUS
10
97.6154
20
-48.4116
11
97.6175
21
-48.4108
0
LINE
8
BLACK
6
CONTINUOUS
10
97.6175
20
-48.4108
11
98.1857
21
-48.2349
0
LINE
8
BLACK
6
CONTINUOUS
10
98.1857
20
-48.2349
11
98.1861
21
-48.2348
0
LINE
8
BLACK
6
CONTINUOUS
10
98.1861
20
-48.2348
11
98.1883
21
-48.2343
0
LINE
8
BLACK
6
CONTINUOUS
10
98.1883
20
-48.2343
11
98.1905
21
-48.2339
0
LINE
8
BLACK
6
CONTINUOUS
10
98.1905
20
-48.2339
11
98.7821
21
-48.1717
0
LINE
8
BLACK
6
CONTINUOUS
10
98.7821
20
-48.1717
11
98.7825
21
-48.1717
0
LINE
8
BLACK
6
CONTINUOUS
10
98.7825
20
-48.1717
11
98.7836
21
-48.1717
0
LINE
8
BLACK
6
CONTINUOUS
10
98.7836
20
-48.1717
11
98.7846
21
-48.1716
0
LINE
8
BLACK
6
CONTINUOUS
10
98.7846
20
-48.1716
11
98.8047
21
-48.1715
0
LINE
8
BLACK
6
CONTINUOUS
10
98.8047
20
-48.1715
11
98.8048
21
-48.1715
0
LINE
8
BLACK
6
CONTINUOUS
10
98.8048
20
-48.1715
11
150.433
21
-48.1715
0
LINE
8
BLACK
6
CONTINUOUS
10
150.433
20
-48.1715
11
150.434
21
-48.1716
0
LINE
8
BLACK
6
CONTINUOUS
10
150.434
20
-48.1716
11
150.434
21
-48.1716
0
LINE
8
BLACK
6
CONTINUOUS
10
150.434
20
-48.1716
11
151.026
21
-48.2297
0
LINE
8
BLACK
6
CONTINUOUS
10
151.026
20
-48.2297
11
151.026
21
-48.2297
0
LINE
8
BLACK
6
CONTINUOUS
10
151.026
20
-48.2297
11
151.029
21
-48.2302
0
LINE
8
BLACK
6
CONTINUOUS
10
151.029
20
-48.2302
11
151.031
21
-48.2306
0
LINE
8
BLACK
6
CONTINUOUS
10
151.031
20
-48.2306
11
151.6
21
-48.4026
0
LINE
8
BLACK
6
CONTINUOUS
10
151.6
20
-48.4026
11
151.601
21
-48.4027
0
LINE
8
BLACK
6
CONTINUOUS
10
151.601
20
-48.4027
11
151.603
21
-48.4035
0
LINE
8
BLACK
6
CONTINUOUS
10
151.603
20
-48.4035
11
151.605
21
-48.4044
0
LINE
8
BLACK
6
CONTINUOUS
10
151.605
20
-48.4044
11
152.13
21
-48.6837
0
LINE
8
BLACK
6
CONTINUOUS
10
152.13
20
-48.6837
11
152.13
21
-48.6837
0
LINE
8
BLACK
6
CONTINUOUS
10
152.13
20
-48.6837
11
152.13
21
-48.6837
0
LINE
8
BLACK
6
CONTINUOUS
10
152.13
20
-48.6837
11
152.13
21
-48.6838
0
LINE
8
BLACK
6
CONTINUOUS
10
152.13
20
-48.6838
11
152.132
21
-48.6851
0
LINE
8
BLACK
6
CONTINUOUS
10
152.132
20
-48.6851
11
152.134
21
-48.6864
0
LINE
8
BLACK
6
CONTINUOUS
10
152.134
20
-48.6864
11
152.595
21
-49.0623
0
LINE
8
BLACK
6
CONTINUOUS
10
152.595
20
-49.0623
11
152.595
21
-49.0624
0
LINE
8
BLACK
6
CONTINUOUS
10
152.595
20
-49.0624
11
152.595
21
-49.0624
0
LINE
8
BLACK
6
CONTINUOUS
10
152.595
20
-49.0624
11
152.595
21
-49.0626
0
LINE
8
BLACK
6
CONTINUOUS
10
152.595
20
-49.0626
11
152.597
21
-49.0642
0
LINE
8
BLACK
6
CONTINUOUS
10
152.597
20
-49.0642
11
152.598
21
-49.0658
0
LINE
8
BLACK
6
CONTINUOUS
10
152.598
20
-49.0658
11
152.978
21
-49.5241
0
LINE
8
BLACK
6
CONTINUOUS
10
152.978
20
-49.5241
11
152.978
21
-49.5244
0
LINE
8
BLACK
6
CONTINUOUS
10
152.978
20
-49.5244
11
152.979
21
-49.5263
0
LINE
8
BLACK
6
CONTINUOUS
10
152.979
20
-49.5263
11
152.98
21
-49.5282
0
LINE
8
BLACK
6
CONTINUOUS
10
152.98
20
-49.5282
11
153.263
21
-50.0515
0
LINE
8
BLACK
6
CONTINUOUS
10
153.263
20
-50.0515
11
153.263
21
-50.0515
0
LINE
8
BLACK
6
CONTINUOUS
10
153.263
20
-50.0515
11
153.263
21
-50.0515
0
LINE
8
BLACK
6
CONTINUOUS
10
153.263
20
-50.0515
11
153.263
21
-50.0518
0
LINE
8
BLACK
6
CONTINUOUS
10
153.263
20
-50.0518
11
153.264
21
-50.0539
0
LINE
8
BLACK
6
CONTINUOUS
10
153.264
20
-50.0539
11
153.265
21
-50.056
0
LINE
8
BLACK
6
CONTINUOUS
10
153.265
20
-50.056
11
153.441
21
-50.6242
0
LINE
8
BLACK
6
CONTINUOUS
10
153.441
20
-50.6242
11
153.441
21
-50.6246
0
LINE
8
BLACK
6
CONTINUOUS
10
153.441
20
-50.6246
11
153.442
21
-50.6268
0
LINE
8
BLACK
6
CONTINUOUS
10
153.442
20
-50.6268
11
153.442
21
-50.629
0
LINE
8
BLACK
6
CONTINUOUS
10
153.442
20
-50.629
11
153.504
21
-51.2206
0
LINE
8
BLACK
6
CONTINUOUS
10
153.504
20
-51.2206
11
153.504
21
-51.221
0
LINE
8
BLACK
6
CONTINUOUS
10
153.504
20
-51.221
11
153.504
21
-51.2221
0
LINE
8
BLACK
6
CONTINUOUS
10
153.504
20
-51.2221
11
153.504
21
-51.2231
0
LINE
8
BLACK
6
CONTINUOUS
10
153.504
20
-51.2231
11
153.504
21
-51.2432
0
LINE
8
BLACK
6
CONTINUOUS
10
153.504
20
-51.2432
11
153.504
21
-51.2433
0
LINE
8
BLACK
6
CONTINUOUS
10
153.504
20
-51.2433
11
153.504
21
-112.142
0
LINE
8
BLACK
6
CONTINUOUS
10
153.504
20
-112.142
11
153.504
21
-112.143
0
LINE
8
BLACK
6
CONTINUOUS
10
153.504
20
-112.143
11
153.504
21
-112.143
0
LINE
8
BLACK
6
CONTINUOUS
10
153.504
20
-112.143
11
153.446
21
-112.735
0
LINE
8
BLACK
6
CONTINUOUS
10
153.446
20
-112.735
11
153.446
21
-112.736
0
LINE
8
BLACK
6
CONTINUOUS
10
153.446
20
-112.736
11
153.446
21
-112.738
0
LINE
8
BLACK
6
CONTINUOUS
10
153.446
20
-112.738
11
153.445
21
-112.74
0
LINE
8
BLACK
6
CONTINUOUS
10
153.445
20
-112.74
11
153.273
21
-113.31
0
LINE
8
BLACK
6
CONTINUOUS
10
153.273
20
-113.31
11
153.273
21
-113.31
0
LINE
8
BLACK
6
CONTINUOUS
10
153.273
20
-113.31
11
153.272
21
-113.312
0
LINE
8
BLACK
6
CONTINUOUS
10
153.272
20
-113.312
11
153.272
21
-113.314
0
LINE
8
BLACK
6
CONTINUOUS
10
153.272
20
-113.314
11
152.992
21
-113.839
0
LINE
8
BLACK
6
CONTINUOUS
10
152.992
20
-113.839
11
152.992
21
-113.84
0
LINE
8
BLACK
6
CONTINUOUS
10
152.992
20
-113.84
11
152.991
21
-113.842
0
LINE
8
BLACK
6
CONTINUOUS
10
152.991
20
-113.842
11
152.99
21
-113.844
0
LINE
8
BLACK
6
CONTINUOUS
10
152.99
20
-113.844
11
152.614
21
-114.305
0
LINE
8
BLACK
6
CONTINUOUS
10
152.614
20
-114.305
11
152.613
21
-114.305
0
LINE
8
BLACK
6
CONTINUOUS
10
152.613
20
-114.305
11
152.612
21
-114.306
0
LINE
8
BLACK
6
CONTINUOUS
10
152.612
20
-114.306
11
152.61
21
-114.308
0
LINE
8
BLACK
6
CONTINUOUS
10
152.61
20
-114.308
11
152.152
21
-114.687
0
LINE
8
BLACK
6
CONTINUOUS
10
152.152
20
-114.687
11
152.152
21
-114.687
0
LINE
8
BLACK
6
CONTINUOUS
10
152.152
20
-114.687
11
152.15
21
-114.689
0
LINE
8
BLACK
6
CONTINUOUS
10
152.15
20
-114.689
11
152.148
21
-114.69
0
LINE
8
BLACK
6
CONTINUOUS
10
152.148
20
-114.69
11
151.625
21
-114.973
0
LINE
8
BLACK
6
CONTINUOUS
10
151.625
20
-114.973
11
151.624
21
-114.973
0
LINE
8
BLACK
6
CONTINUOUS
10
151.624
20
-114.973
11
151.622
21
-114.974
0
LINE
8
BLACK
6
CONTINUOUS
10
151.622
20
-114.974
11
151.62
21
-114.975
0
LINE
8
BLACK
6
CONTINUOUS
10
151.62
20
-114.975
11
151.052
21
-115.151
0
LINE
8
BLACK
6
CONTINUOUS
10
151.052
20
-115.151
11
151.051
21
-115.151
0
LINE
8
BLACK
6
CONTINUOUS
10
151.051
20
-115.151
11
151.049
21
-115.151
0
LINE
8
BLACK
6
CONTINUOUS
10
151.049
20
-115.151
11
151.047
21
-115.152
0
LINE
8
BLACK
6
CONTINUOUS
10
151.047
20
-115.152
11
150.455
21
-115.214
0
LINE
8
BLACK
6
CONTINUOUS
10
150.455
20
-115.214
11
150.455
21
-115.214
0
LINE
8
BLACK
6
CONTINUOUS
10
150.455
20
-115.214
11
150.454
21
-115.214
0
LINE
8
BLACK
6
CONTINUOUS
10
150.454
20
-115.214
11
150.453
21
-115.214
0
LINE
8
BLACK
6
CONTINUOUS
10
150.453
20
-115.214
11
150.433
21
-115.214
0
LINE
8
BLACK
6
CONTINUOUS
10
150.433
20
-115.214
11
150.433
21
-115.214
0
LINE
8
BLACK
6
CONTINUOUS
10
150.433
20
-115.214
11
98.8048
21
-115.214
0
LINE
8
BLACK
6
CONTINUOUS
10
98.8048
20
-115.214
11
98.8036
21
-115.214
0
LINE
8
BLACK
6
CONTINUOUS
10
98.8061
20
-48.2215
11
98.7861
21
-48.2216
0
LINE
8
BLACK
6
CONTINUOUS
10
98.7861
20
-48.2216
11
98.1982
21
-48.2834
0
LINE
8
BLACK
6
CONTINUOUS
10
98.1982
20
-48.2834
11
97.6346
21
-48.4578
0
LINE
8
BLACK
6
CONTINUOUS
10
97.6346
20
-48.4578
11
97.1156
21
-48.7384
0
LINE
8
BLACK
6
CONTINUOUS
10
97.1156
20
-48.7384
11
96.661
21
-49.1145
0
LINE
8
BLACK
6
CONTINUOUS
10
96.661
20
-49.1145
11
96.2882
21
-49.5717
0
LINE
8
BLACK
6
CONTINUOUS
10
96.2882
20
-49.5717
11
96.0112
21
-50.0926
0
LINE
8
BLACK
6
CONTINUOUS
10
96.0112
20
-50.0926
11
95.8407
21
-50.6574
0
LINE
8
BLACK
6
CONTINUOUS
10
95.8407
20
-50.6574
11
95.783
21
-51.2457
0
LINE
8
BLACK
6
CONTINUOUS
10
95.783
20
-51.2457
11
95.783
21
-112.141
0
LINE
8
BLACK
6
CONTINUOUS
10
95.783
20
-112.141
11
95.7831
21
-112.161
0
LINE
8
BLACK
6
CONTINUOUS
10
95.7831
20
-112.161
11
95.8449
21
-112.749
0
LINE
8
BLACK
6
CONTINUOUS
10
95.8449
20
-112.749
11
96.0193
21
-113.312
0
LINE
8
BLACK
6
CONTINUOUS
10
96.0193
20
-113.312
11
96.2999
21
-113.831
0
LINE
8
BLACK
6
CONTINUOUS
10
96.2999
20
-113.831
11
96.676
21
-114.286
0
LINE
8
BLACK
6
CONTINUOUS
10
96.676
20
-114.286
11
97.1332
21
-114.659
0
LINE
8
BLACK
6
CONTINUOUS
10
97.1332
20
-114.659
11
97.6541
21
-114.936
0
LINE
8
BLACK
6
CONTINUOUS
10
97.6541
20
-114.936
11
98.2189
21
-115.106
0
LINE
8
BLACK
6
CONTINUOUS
10
98.2189
20
-115.106
11
98.8072
21
-115.164
0
LINE
8
BLACK
6
CONTINUOUS
10
98.8072
20
-115.164
11
150.431
21
-115.164
0
LINE
8
BLACK
6
CONTINUOUS
10
150.431
20
-115.164
11
150.451
21
-115.164
0
LINE
8
BLACK
6
CONTINUOUS
10
150.451
20
-115.164
11
151.039
21
-115.102
0
LINE
8
BLACK
6
CONTINUOUS
10
151.039
20
-115.102
11
151.603
21
-114.928
0
LINE
8
BLACK
6
CONTINUOUS
10
151.603
20
-114.928
11
152.122
21
-114.647
0
LINE
8
BLACK
6
CONTINUOUS
10
152.122
20
-114.647
11
152.576
21
-114.271
0
LINE
8
BLACK
6
CONTINUOUS
10
152.576
20
-114.271
11
152.949
21
-113.814
0
LINE
8
BLACK
6
CONTINUOUS
10
152.949
20
-113.814
11
153.226
21
-113.293
0
LINE
8
BLACK
6
CONTINUOUS
10
153.226
20
-113.293
11
153.397
21
-112.728
0
LINE
8
BLACK
6
CONTINUOUS
10
153.397
20
-112.728
11
153.455
21
-112.14
0
LINE
8
BLACK
6
CONTINUOUS
10
153.455
20
-112.14
11
153.454
21
-51.2446
0
LINE
8
BLACK
6
CONTINUOUS
10
153.454
20
-51.2446
11
153.454
21
-51.2246
0
LINE
8
BLACK
6
CONTINUOUS
10
153.454
20
-51.2246
11
153.393
21
-50.6367
0
LINE
8
BLACK
6
CONTINUOUS
10
153.393
20
-50.6367
11
153.218
21
-50.0731
0
LINE
8
BLACK
6
CONTINUOUS
10
153.218
20
-50.0731
11
152.938
21
-49.5541
0
LINE
8
BLACK
6
CONTINUOUS
10
152.938
20
-49.5541
11
152.562
21
-49.0996
0
LINE
8
BLACK
6
CONTINUOUS
10
152.562
20
-49.0996
11
152.104
21
-48.7267
0
LINE
8
BLACK
6
CONTINUOUS
10
152.104
20
-48.7267
11
151.583
21
-48.4497
0
LINE
8
BLACK
6
CONTINUOUS
10
151.583
20
-48.4497
11
151.019
21
-48.2792
0
LINE
8
BLACK
6
CONTINUOUS
10
151.019
20
-48.2792
11
150.43
21
-48.2215
0
LINE
8
BLACK
6
CONTINUOUS
10
150.43
20
-48.2215
11
98.8061
21
-48.2215
0
LINE
8
BLACK
6
CONTINUOUS
10
97.1763
20
-111.812
11
97.2941
21
-111.528
0
LINE
8
BLACK
6
CONTINUOUS
10
97.2941
20
-111.528
11
97.4651
21
-111.272
0
LINE
8
BLACK
6
CONTINUOUS
10
97.4651
20
-111.272
11
97.6828
21
-111.054
0
LINE
8
BLACK
6
CONTINUOUS
10
97.6828
20
-111.054
11
97.9388
21
-110.883
0
LINE
8
BLACK
6
CONTINUOUS
10
97.9388
20
-110.883
11
98.2232
21
-110.765
0
LINE
8
BLACK
6
CONTINUOUS
10
98.2232
20
-110.765
11
98.5251
21
-110.705
0
LINE
8
BLACK
6
CONTINUOUS
10
98.5251
20
-110.705
11
98.8329
21
-110.705
0
LINE
8
BLACK
6
CONTINUOUS
10
98.8329
20
-110.705
11
99.1348
21
-110.765
0
LINE
8
BLACK
6
CONTINUOUS
10
99.1348
20
-110.765
11
99.4192
21
-110.883
0
LINE
8
BLACK
6
CONTINUOUS
10
99.4192
20
-110.883
11
99.6752
21
-111.054
0
LINE
8
BLACK
6
CONTINUOUS
10
99.6752
20
-111.054
11
99.8929
21
-111.272
0
LINE
8
BLACK
6
CONTINUOUS
10
99.8929
20
-111.272
11
100.064
21
-111.528
0
LINE
8
BLACK
6
CONTINUOUS
10
100.064
20
-111.528
11
100.182
21
-111.812
0
LINE
8
BLACK
6
CONTINUOUS
10
100.182
20
-111.812
11
100.242
21
-112.114
0
LINE
8
BLACK
6
CONTINUOUS
10
100.242
20
-112.114
11
100.242
21
-112.422
0
LINE
8
BLACK
6
CONTINUOUS
10
100.242
20
-112.422
11
100.182
21
-112.724
0
LINE
8
BLACK
6
CONTINUOUS
10
100.182
20
-112.724
11
100.064
21
-113.008
0
LINE
8
BLACK
6
CONTINUOUS
10
100.064
20
-113.008
11
99.8929
21
-113.264
0
LINE
8
BLACK
6
CONTINUOUS
10
99.8929
20
-113.264
11
99.6752
21
-113.482
0
LINE
8
BLACK
6
CONTINUOUS
10
99.6752
20
-113.482
11
99.4192
21
-113.653
0
LINE
8
BLACK
6
CONTINUOUS
10
99.4192
20
-113.653
11
99.1348
21
-113.771
0
LINE
8
BLACK
6
CONTINUOUS
10
99.1348
20
-113.771
11
98.8329
21
-113.831
0
LINE
8
BLACK
6
CONTINUOUS
10
98.8329
20
-113.831
11
98.5251
21
-113.831
0
LINE
8
BLACK
6
CONTINUOUS
10
98.5251
20
-113.831
11
98.2232
21
-113.771
0
LINE
8
BLACK
6
CONTINUOUS
10
98.2232
20
-113.771
11
97.9388
21
-113.653
0
LINE
8
BLACK
6
CONTINUOUS
10
97.9388
20
-113.653
11
97.6828
21
-113.482
0
LINE
8
BLACK
6
CONTINUOUS
10
97.6828
20
-113.482
11
97.4651
21
-113.264
0
LINE
8
BLACK
6
CONTINUOUS
10
97.4651
20
-113.264
11
97.2941
21
-113.008
0
LINE
8
BLACK
6
CONTINUOUS
10
97.2941
20
-113.008
11
97.1763
21
-112.724
0
LINE
8
BLACK
6
CONTINUOUS
10
97.1763
20
-112.724
11
97.1162
21
-112.422
0
LINE
8
BLACK
6
CONTINUOUS
10
97.1162
20
-112.422
11
97.1162
21
-112.114
0
LINE
8
BLACK
6
CONTINUOUS
10
97.1162
20
-112.114
11
97.1763
21
-111.812
0
LINE
8
BLACK
6
CONTINUOUS
10
97.2433
20
-112.704
11
97.3558
21
-112.975
0
LINE
8
BLACK
6
CONTINUOUS
10
97.3558
20
-112.975
11
97.5192
21
-113.22
0
LINE
8
BLACK
6
CONTINUOUS
10
97.5192
20
-113.22
11
97.7272
21
-113.428
0
LINE
8
BLACK
6
CONTINUOUS
10
97.7272
20
-113.428
11
97.9718
21
-113.591
0
LINE
8
BLACK
6
CONTINUOUS
10
97.9718
20
-113.591
11
98.2435
21
-113.704
0
LINE
8
BLACK
6
CONTINUOUS
10
98.2435
20
-113.704
11
98.5319
21
-113.761
0
LINE
8
BLACK
6
CONTINUOUS
10
98.5319
20
-113.761
11
98.8261
21
-113.761
0
LINE
8
BLACK
6
CONTINUOUS
10
98.8261
20
-113.761
11
99.1145
21
-113.704
0
LINE
8
BLACK
6
CONTINUOUS
10
99.1145
20
-113.704
11
99.3862
21
-113.591
0
LINE
8
BLACK
6
CONTINUOUS
10
99.3862
20
-113.591
11
99.6308
21
-113.428
0
LINE
8
BLACK
6
CONTINUOUS
10
99.6308
20
-113.428
11
99.8388
21
-113.22
0
LINE
8
BLACK
6
CONTINUOUS
10
99.8388
20
-113.22
11
100.002
21
-112.975
0
LINE
8
BLACK
6
CONTINUOUS
10
100.002
20
-112.975
11
100.115
21
-112.704
0
LINE
8
BLACK
6
CONTINUOUS
10
100.115
20
-112.704
11
100.172
21
-112.415
0
LINE
8
BLACK
6
CONTINUOUS
10
100.172
20
-112.415
11
100.172
21
-112.121
0
LINE
8
BLACK
6
CONTINUOUS
10
100.172
20
-112.121
11
100.115
21
-111.832
0
LINE
8
BLACK
6
CONTINUOUS
10
100.115
20
-111.832
11
100.002
21
-111.561
0
LINE
8
BLACK
6
CONTINUOUS
10
100.002
20
-111.561
11
99.8388
21
-111.316
0
LINE
8
BLACK
6
CONTINUOUS
10
99.8388
20
-111.316
11
99.6308
21
-111.108
0
LINE
8
BLACK
6
CONTINUOUS
10
99.6308
20
-111.108
11
99.3862
21
-110.945
0
LINE
8
BLACK
6
CONTINUOUS
10
99.3862
20
-110.945
11
99.1145
21
-110.832
0
LINE
8
BLACK
6
CONTINUOUS
10
99.1145
20
-110.832
11
98.8261
21
-110.775
0
LINE
8
BLACK
6
CONTINUOUS
10
98.8261
20
-110.775
11
98.5319
21
-110.775
0
LINE
8
BLACK
6
CONTINUOUS
10
98.5319
20
-110.775
11
98.2435
21
-110.832
0
LINE
8
BLACK
6
CONTINUOUS
10
98.2435
20
-110.832
11
97.9718
21
-110.945
0
LINE
8
BLACK
6
CONTINUOUS
10
97.9718
20
-110.945
11
97.7272
21
-111.108
0
LINE
8
BLACK
6
CONTINUOUS
10
97.7272
20
-111.108
11
97.5192
21
-111.316
0
LINE
8
BLACK
6
CONTINUOUS
10
97.5192
20
-111.316
11
97.3558
21
-111.561
0
LINE
8
BLACK
6
CONTINUOUS
10
97.3558
20
-111.561
11
97.2433
21
-111.832
0
LINE
8
BLACK
6
CONTINUOUS
10
97.2433
20
-111.832
11
97.1859
21
-112.121
0
LINE
8
BLACK
6
CONTINUOUS
10
97.1859
20
-112.121
11
97.1859
21
-112.415
0
LINE
8
BLACK
6
CONTINUOUS
10
97.1859
20
-112.415
11
97.2433
21
-112.704
0
LINE
8
BLACK
6
CONTINUOUS
10
149.056
20
-111.812
11
149.174
21
-111.528
0
LINE
8
BLACK
6
CONTINUOUS
10
149.174
20
-111.528
11
149.345
21
-111.272
0
LINE
8
BLACK
6
CONTINUOUS
10
149.345
20
-111.272
11
149.562
21
-111.054
0
LINE
8
BLACK
6
CONTINUOUS
10
149.562
20
-111.054
11
149.818
21
-110.883
0
LINE
8
BLACK
6
CONTINUOUS
10
149.818
20
-110.883
11
150.103
21
-110.765
0
LINE
8
BLACK
6
CONTINUOUS
10
150.103
20
-110.765
11
150.405
21
-110.705
0
LINE
8
BLACK
6
CONTINUOUS
10
150.405
20
-110.705
11
150.712
21
-110.705
0
LINE
8
BLACK
6
CONTINUOUS
10
150.712
20
-110.705
11
151.014
21
-110.765
0
LINE
8
BLACK
6
CONTINUOUS
10
151.014
20
-110.765
11
151.299
21
-110.883
0
LINE
8
BLACK
6
CONTINUOUS
10
151.299
20
-110.883
11
151.555
21
-111.054
0
LINE
8
BLACK
6
CONTINUOUS
10
151.555
20
-111.054
11
151.772
21
-111.272
0
LINE
8
BLACK
6
CONTINUOUS
10
151.772
20
-111.272
11
151.943
21
-111.528
0
LINE
8
BLACK
6
CONTINUOUS
10
151.943
20
-111.528
11
152.061
21
-111.812
0
LINE
8
BLACK
6
CONTINUOUS
10
152.061
20
-111.812
11
152.121
21
-112.114
0
LINE
8
BLACK
6
CONTINUOUS
10
152.121
20
-112.114
11
152.121
21
-112.422
0
LINE
8
BLACK
6
CONTINUOUS
10
152.121
20
-112.422
11
152.061
21
-112.724
0
LINE
8
BLACK
6
CONTINUOUS
10
152.061
20
-112.724
11
151.943
21
-113.008
0
LINE
8
BLACK
6
CONTINUOUS
10
151.943
20
-113.008
11
151.772
21
-113.264
0
LINE
8
BLACK
6
CONTINUOUS
10
151.772
20
-113.264
11
151.555
21
-113.482
0
LINE
8
BLACK
6
CONTINUOUS
10
151.555
20
-113.482
11
151.299
21
-113.653
0
LINE
8
BLACK
6
CONTINUOUS
10
151.299
20
-113.653
11
151.014
21
-113.771
0
LINE
8
BLACK
6
CONTINUOUS
10
151.014
20
-113.771
11
150.712
21
-113.831
0
LINE
8
BLACK
6
CONTINUOUS
10
150.712
20
-113.831
11
150.405
21
-113.831
0
LINE
8
BLACK
6
CONTINUOUS
10
150.405
20
-113.831
11
150.103
21
-113.771
0
LINE
8
BLACK
6
CONTINUOUS
10
150.103
20
-113.771
11
149.818
21
-113.653
0
LINE
8
BLACK
6
CONTINUOUS
10
149.818
20
-113.653
11
149.562
21
-113.482
0
LINE
8
BLACK
6
CONTINUOUS
10
149.562
20
-113.482
11
149.345
21
-113.264
0
LINE
8
BLACK
6
CONTINUOUS
10
149.345
20
-113.264
11
149.174
21
-113.008
0
LINE
8
BLACK
6
CONTINUOUS
10
149.174
20
-113.008
11
149.056
21
-112.724
0
LINE
8
BLACK
6
CONTINUOUS
10
149.056
20
-112.724
11
148.996
21
-112.422
0
LINE
8
BLACK
6
CONTINUOUS
10
148.996
20
-112.422
11
148.996
21
-112.114
0
LINE
8
BLACK
6
CONTINUOUS
10
148.996
20
-112.114
11
149.056
21
-111.812
0
LINE
8
BLACK
6
CONTINUOUS
10
149.123
20
-112.704
11
149.235
21
-112.975
0
LINE
8
BLACK
6
CONTINUOUS
10
149.235
20
-112.975
11
149.399
21
-113.22
0
LINE
8
BLACK
6
CONTINUOUS
10
149.399
20
-113.22
11
149.607
21
-113.428
0
LINE
8
BLACK
6
CONTINUOUS
10
149.607
20
-113.428
11
149.851
21
-113.591
0
LINE
8
BLACK
6
CONTINUOUS
10
149.851
20
-113.591
11
150.123
21
-113.704
0
LINE
8
BLACK
6
CONTINUOUS
10
150.123
20
-113.704
11
150.411
21
-113.761
0
LINE
8
BLACK
6
CONTINUOUS
10
150.411
20
-113.761
11
150.706
21
-113.761
0
LINE
8
BLACK
6
CONTINUOUS
10
150.706
20
-113.761
11
150.994
21
-113.704
0
LINE
8
BLACK
6
CONTINUOUS
10
150.994
20
-113.704
11
151.266
21
-113.591
0
LINE
8
BLACK
6
CONTINUOUS
10
151.266
20
-113.591
11
151.51
21
-113.428
0
LINE
8
BLACK
6
CONTINUOUS
10
151.51
20
-113.428
11
151.718
21
-113.22
0
LINE
8
BLACK
6
CONTINUOUS
10
151.718
20
-113.22
11
151.882
21
-112.975
0
LINE
8
BLACK
6
CONTINUOUS
10
151.882
20
-112.975
11
151.994
21
-112.704
0
LINE
8
BLACK
6
CONTINUOUS
10
151.994
20
-112.704
11
152.052
21
-112.415
0
LINE
8
BLACK
6
CONTINUOUS
10
152.052
20
-112.415
11
152.052
21
-112.121
0
LINE
8
BLACK
6
CONTINUOUS
10
152.052
20
-112.121
11
151.994
21
-111.832
0
LINE
8
BLACK
6
CONTINUOUS
10
151.994
20
-111.832
11
151.882
21
-111.561
0
LINE
8
BLACK
6
CONTINUOUS
10
151.882
20
-111.561
11
151.718
21
-111.316
0
LINE
8
BLACK
6
CONTINUOUS
10
151.718
20
-111.316
11
151.51
21
-111.108
0
LINE
8
BLACK
6
CONTINUOUS
10
151.51
20
-111.108
11
151.266
21
-110.945
0
LINE
8
BLACK
6
CONTINUOUS
10
151.266
20
-110.945
11
150.994
21
-110.832
0
LINE
8
BLACK
6
CONTINUOUS
10
150.994
20
-110.832
11
150.706
21
-110.775
0
LINE
8
BLACK
6
CONTINUOUS
10
150.706
20
-110.775
11
150.411
21
-110.775
0
LINE
8
BLACK
6
CONTINUOUS
10
150.411
20
-110.775
11
150.123
21
-110.832
0
LINE
8
BLACK
6
CONTINUOUS
10
150.123
20
-110.832
11
149.851
21
-110.945
0
LINE
8
BLACK
6
CONTINUOUS
10
149.851
20
-110.945
11
149.607
21
-111.108
0
LINE
8
BLACK
6
CONTINUOUS
10
149.607
20
-111.108
11
149.399
21
-111.316
0
LINE
8
BLACK
6
CONTINUOUS
10
149.399
20
-111.316
11
149.235
21
-111.561
0
LINE
8
BLACK
6
CONTINUOUS
10
149.235
20
-111.561
11
149.123
21
-111.832
0
LINE
8
BLACK
6
CONTINUOUS
10
149.123
20
-111.832
11
149.065
21
-112.121
0
LINE
8
BLACK
6
CONTINUOUS
10
149.065
20
-112.121
11
149.065
21
-112.415
0
LINE
8
BLACK
6
CONTINUOUS
10
149.065
20
-112.415
11
149.123
21
-112.704
0
LINE
8
BLACK
6
CONTINUOUS
10
149.056
20
-50.6617
11
149.174
21
-50.3773
0
LINE
8
BLACK
6
CONTINUOUS
10
149.174
20
-50.3773
11
149.345
21
-50.1213
0
LINE
8
BLACK
6
CONTINUOUS
10
149.345
20
-50.1213
11
149.562
21
-49.9036
0
LINE
8
BLACK
6
CONTINUOUS
10
149.562
20
-49.9036
11
149.818
21
-49.7326
0
LINE
8
BLACK
6
CONTINUOUS
10
149.818
20
-49.7326
11
150.103
21
-49.6148
0
LINE
8
BLACK
6
CONTINUOUS
10
150.103
20
-49.6148
11
150.405
21
-49.5547
0
LINE
8
BLACK
6
CONTINUOUS
10
150.405
20
-49.5547
11
150.712
21
-49.5547
0
LINE
8
BLACK
6
CONTINUOUS
10
150.712
20
-49.5547
11
151.014
21
-49.6148
0
LINE
8
BLACK
6
CONTINUOUS
10
151.014
20
-49.6148
11
151.299
21
-49.7326
0
LINE
8
BLACK
6
CONTINUOUS
10
151.299
20
-49.7326
11
151.555
21
-49.9036
0
LINE
8
BLACK
6
CONTINUOUS
10
151.555
20
-49.9036
11
151.772
21
-50.1213
0
LINE
8
BLACK
6
CONTINUOUS
10
151.772
20
-50.1213
11
151.943
21
-50.3773
0
LINE
8
BLACK
6
CONTINUOUS
10
151.943
20
-50.3773
11
152.061
21
-50.6617
0
LINE
8
BLACK
6
CONTINUOUS
10
152.061
20
-50.6617
11
152.121
21
-50.9636
0
LINE
8
BLACK
6
CONTINUOUS
10
152.121
20
-50.9636
11
152.121
21
-51.2714
0
LINE
8
BLACK
6
CONTINUOUS
10
152.121
20
-51.2714
11
152.061
21
-51.5733
0
LINE
8
BLACK
6
CONTINUOUS
10
152.061
20
-51.5733
11
151.943
21
-51.8577
0
LINE
8
BLACK
6
CONTINUOUS
10
151.943
20
-51.8577
11
151.772
21
-52.1137
0
LINE
8
BLACK
6
CONTINUOUS
10
151.772
20
-52.1137
11
151.555
21
-52.3314
0
LINE
8
BLACK
6
CONTINUOUS
10
151.555
20
-52.3314
11
151.299
21
-52.5024
0
LINE
8
BLACK
6
CONTINUOUS
10
151.299
20
-52.5024
11
151.014
21
-52.6202
0
LINE
8
BLACK
6
CONTINUOUS
10
151.014
20
-52.6202
11
150.712
21
-52.6803
0
LINE
8
BLACK
6
CONTINUOUS
10
150.712
20
-52.6803
11
150.405
21
-52.6803
0
LINE
8
BLACK
6
CONTINUOUS
10
150.405
20
-52.6803
11
150.103
21
-52.6202
0
LINE
8
BLACK
6
CONTINUOUS
10
150.103
20
-52.6202
11
149.818
21
-52.5024
0
LINE
8
BLACK
6
CONTINUOUS
10
149.818
20
-52.5024
11
149.562
21
-52.3314
0
LINE
8
BLACK
6
CONTINUOUS
10
149.562
20
-52.3314
11
149.345
21
-52.1137
0
LINE
8
BLACK
6
CONTINUOUS
10
149.345
20
-52.1137
11
149.174
21
-51.8577
0
LINE
8
BLACK
6
CONTINUOUS
10
149.174
20
-51.8577
11
149.056
21
-51.5733
0
LINE
8
BLACK
6
CONTINUOUS
10
149.056
20
-51.5733
11
148.996
21
-51.2714
0
LINE
8
BLACK
6
CONTINUOUS
10
148.996
20
-51.2714
11
148.996
21
-50.9636
0
LINE
8
BLACK
6
CONTINUOUS
10
148.996
20
-50.9636
11
149.056
21
-50.6617
0
LINE
8
BLACK
6
CONTINUOUS
10
149.123
20
-51.553
11
149.235
21
-51.8247
0
LINE
8
BLACK
6
CONTINUOUS
10
149.235
20
-51.8247
11
149.399
21
-52.0693
0
LINE
8
BLACK
6
CONTINUOUS
10
149.399
20
-52.0693
11
149.607
21
-52.2773
0
LINE
8
BLACK
6
CONTINUOUS
10
149.607
20
-52.2773
11
149.851
21
-52.4407
0
LINE
8
BLACK
6
CONTINUOUS
10
149.851
20
-52.4407
11
150.123
21
-52.5532
0
LINE
8
BLACK
6
CONTINUOUS
10
150.123
20
-52.5532
11
150.411
21
-52.6106
0
LINE
8
BLACK
6
CONTINUOUS
10
150.411
20
-52.6106
11
150.706
21
-52.6106
0
LINE
8
BLACK
6
CONTINUOUS
10
150.706
20
-52.6106
11
150.994
21
-52.5532
0
LINE
8
BLACK
6
CONTINUOUS
10
150.994
20
-52.5532
11
151.266
21
-52.4407
0
LINE
8
BLACK
6
CONTINUOUS
10
151.266
20
-52.4407
11
151.51
21
-52.2773
0
LINE
8
BLACK
6
CONTINUOUS
10
151.51
20
-52.2773
11
151.718
21
-52.0693
0
LINE
8
BLACK
6
CONTINUOUS
10
151.718
20
-52.0693
11
151.882
21
-51.8247
0
LINE
8
BLACK
6
CONTINUOUS
10
151.882
20
-51.8247
11
151.994
21
-51.553
0
LINE
8
BLACK
6
CONTINUOUS
10
151.994
20
-51.553
11
152.052
21
-51.2646
0
LINE
8
BLACK
6
CONTINUOUS
10
152.052
20
-51.2646
11
152.052
21
-50.9704
0
LINE
8
BLACK
6
CONTINUOUS
10
152.052
20
-50.9704
11
151.994
21
-50.682
0
LINE
8
BLACK
6
CONTINUOUS
10
151.994
20
-50.682
11
151.882
21
-50.4103
0
LINE
8
BLACK
6
CONTINUOUS
10
151.882
20
-50.4103
11
151.718
21
-50.1657
0
LINE
8
BLACK
6
CONTINUOUS
10
151.718
20
-50.1657
11
151.51
21
-49.9577
0
LINE
8
BLACK
6
CONTINUOUS
10
151.51
20
-49.9577
11
151.266
21
-49.7943
0
LINE
8
BLACK
6
CONTINUOUS
10
151.266
20
-49.7943
11
150.994
21
-49.6818
0
LINE
8
BLACK
6
CONTINUOUS
10
150.994
20
-49.6818
11
150.706
21
-49.6244
0
LINE
8
BLACK
6
CONTINUOUS
10
150.706
20
-49.6244
11
150.411
21
-49.6244
0
LINE
8
BLACK
6
CONTINUOUS
10
150.411
20
-49.6244
11
150.123
21
-49.6818
0
LINE
8
BLACK
6
CONTINUOUS
10
150.123
20
-49.6818
11
149.851
21
-49.7943
0
LINE
8
BLACK
6
CONTINUOUS
10
149.851
20
-49.7943
11
149.607
21
-49.9577
0
LINE
8
BLACK
6
CONTINUOUS
10
149.607
20
-49.9577
11
149.399
21
-50.1657
0
LINE
8
BLACK
6
CONTINUOUS
10
149.399
20
-50.1657
11
149.235
21
-50.4103
0
LINE
8
BLACK
6
CONTINUOUS
10
149.235
20
-50.4103
11
149.123
21
-50.682
0
LINE
8
BLACK
6
CONTINUOUS
10
149.123
20
-50.682
11
149.065
21
-50.9704
0
LINE
8
BLACK
6
CONTINUOUS
10
149.065
20
-50.9704
11
149.065
21
-51.2646
0
LINE
8
BLACK
6
CONTINUOUS
10
149.065
20
-51.2646
11
149.123
21
-51.553
0
LINE
8
BLACK
6
CONTINUOUS
10
97.1763
20
-50.6617
11
97.2941
21
-50.3773
0
LINE
8
BLACK
6
CONTINUOUS
10
97.2941
20
-50.3773
11
97.4651
21
-50.1213
0
LINE
8
BLACK
6
CONTINUOUS
10
97.4651
20
-50.1213
11
97.6828
21
-49.9036
0
LINE
8
BLACK
6
CONTINUOUS
10
97.6828
20
-49.9036
11
97.9388
21
-49.7326
0
LINE
8
BLACK
6
CONTINUOUS
10
97.9388
20
-49.7326
11
98.2232
21
-49.6148
0
LINE
8
BLACK
6
CONTINUOUS
10
98.2232
20
-49.6148
11
98.5251
21
-49.5547
0
LINE
8
BLACK
6
CONTINUOUS
10
98.5251
20
-49.5547
11
98.8329
21
-49.5547
0
LINE
8
BLACK
6
CONTINUOUS
10
98.8329
20
-49.5547
11
99.1348
21
-49.6148
0
LINE
8
BLACK
6
CONTINUOUS
10
99.1348
20
-49.6148
11
99.4192
21
-49.7326
0
LINE
8
BLACK
6
CONTINUOUS
10
99.4192
20
-49.7326
11
99.6752
21
-49.9036
0
LINE
8
BLACK
6
CONTINUOUS
10
99.6752
20
-49.9036
11
99.8929
21
-50.1213
0
LINE
8
BLACK
6
CONTINUOUS
10
99.8929
20
-50.1213
11
100.064
21
-50.3773
0
LINE
8
BLACK
6
CONTINUOUS
10
100.064
20
-50.3773
11
100.182
21
-50.6617
0
LINE
8
BLACK
6
CONTINUOUS
10
100.182
20
-50.6617
11
100.242
21
-50.9636
0
LINE
8
BLACK
6
CONTINUOUS
10
100.242
20
-50.9636
11
100.242
21
-51.2714
0
LINE
8
BLACK
6
CONTINUOUS
10
100.242
20
-51.2714
11
100.182
21
-51.5733
0
LINE
8
BLACK
6
CONTINUOUS
10
100.182
20
-51.5733
11
100.064
21
-51.8577
0
LINE
8
BLACK
6
CONTINUOUS
10
100.064
20
-51.8577
11
99.8929
21
-52.1137
0
LINE
8
BLACK
6
CONTINUOUS
10
99.8929
20
-52.1137
11
99.6752
21
-52.3314
0
LINE
8
BLACK
6
CONTINUOUS
10
99.6752
20
-52.3314
11
99.4192
21
-52.5024
0
LINE
8
BLACK
6
CONTINUOUS
10
99.4192
20
-52.5024
11
99.1348
21
-52.6202
0
LINE
8
BLACK
6
CONTINUOUS
10
99.1348
20
-52.6202
11
98.8329
21
-52.6803
0
LINE
8
BLACK
6
CONTINUOUS
10
98.8329
20
-52.6803
11
98.5251
21
-52.6803
0
LINE
8
BLACK
6
CONTINUOUS
10
98.5251
20
-52.6803
11
98.2232
21
-52.6202
0
LINE
8
BLACK
6
CONTINUOUS
10
98.2232
20
-52.6202
11
97.9388
21
-52.5024
0
LINE
8
BLACK
6
CONTINUOUS
10
97.9388
20
-52.5024
11
97.6828
21
-52.3314
0
LINE
8
BLACK
6
CONTINUOUS
10
97.6828
20
-52.3314
11
97.4651
21
-52.1137
0
LINE
8
BLACK
6
CONTINUOUS
10
97.4651
20
-52.1137
11
97.2941
21
-51.8577
0
LINE
8
BLACK
6
CONTINUOUS
10
97.2941
20
-51.8577
11
97.1763
21
-51.5733
0
LINE
8
BLACK
6
CONTINUOUS
10
97.1763
20
-51.5733
11
97.1162
21
-51.2714
0
LINE
8
BLACK
6
CONTINUOUS
10
97.1162
20
-51.2714
11
97.1162
21
-50.9636
0
LINE
8
BLACK
6
CONTINUOUS
10
97.1162
20
-50.9636
11
97.1763
21
-50.6617
0
LINE
8
BLACK
6
CONTINUOUS
10
97.2433
20
-51.553
11
97.3558
21
-51.8247
0
LINE
8
BLACK
6
CONTINUOUS
10
97.3558
20
-51.8247
11
97.5192
21
-52.0693
0
LINE
8
BLACK
6
CONTINUOUS
10
97.5192
20
-52.0693
11
97.7272
21
-52.2773
0
LINE
8
BLACK
6
CONTINUOUS
10
97.7272
20
-52.2773
11
97.9718
21
-52.4407
0
LINE
8
BLACK
6
CONTINUOUS
10
97.9718
20
-52.4407
11
98.2435
21
-52.5532
0
LINE
8
BLACK
6
CONTINUOUS
10
98.2435
20
-52.5532
11
98.5319
21
-52.6106
0
LINE
8
BLACK
6
CONTINUOUS
10
98.5319
20
-52.6106
11
98.8261
21
-52.6106
0
LINE
8
BLACK
6
CONTINUOUS
10
98.8261
20
-52.6106
11
99.1145
21
-52.5532
0
LINE
8
BLACK
6
CONTINUOUS
10
99.1145
20
-52.5532
11
99.3862
21
-52.4407
0
LINE
8
BLACK
6
CONTINUOUS
10
99.3862
20
-52.4407
11
99.6308
21
-52.2773
0
LINE
8
BLACK
6
CONTINUOUS
10
99.6308
20
-52.2773
11
99.8388
21
-52.0693
0
LINE
8
BLACK
6
CONTINUOUS
10
99.8388
20
-52.0693
11
100.002
21
-51.8247
0
LINE
8
BLACK
6
CONTINUOUS
10
100.002
20
-51.8247
11
100.115
21
-51.553
0
LINE
8
BLACK
6
CONTINUOUS
10
100.115
20
-51.553
11
100.172
21
-51.2646
0
LINE
8
BLACK
6
CONTINUOUS
10
100.172
20
-51.2646
11
100.172
21
-50.9704
0
LINE
8
BLACK
6
CONTINUOUS
10
100.172
20
-50.9704
11
100.115
21
-50.682
0
LINE
8
BLACK
6
CONTINUOUS
10
100.115
20
-50.682
11
100.002
21
-50.4103
0
LINE
8
BLACK
6
CONTINUOUS
10
100.002
20
-50.4103
11
99.8388
21
-50.1657
0
LINE
8
BLACK
6
CONTINUOUS
10
99.8388
20
-50.1657
11
99.6308
21
-49.9577
0
LINE
8
BLACK
6
CONTINUOUS
10
99.6308
20
-49.9577
11
99.3862
21
-49.7943
0
LINE
8
BLACK
6
CONTINUOUS
10
99.3862
20
-49.7943
11
99.1145
21
-49.6818
0
LINE
8
BLACK
6
CONTINUOUS
10
99.1145
20
-49.6818
11
98.8261
21
-49.6244
0
LINE
8
BLACK
6
CONTINUOUS
10
98.8261
20
-49.6244
11
98.5319
21
-49.6244
0
LINE
8
BLACK
6
CONTINUOUS
10
98.5319
20
-49.6244
11
98.2435
21
-49.6818
0
LINE
8
BLACK
6
CONTINUOUS
10
98.2435
20
-49.6818
11
97.9718
21
-49.7943
0
LINE
8
BLACK
6
CONTINUOUS
10
97.9718
20
-49.7943
11
97.7272
21
-49.9577
0
LINE
8
BLACK
6
CONTINUOUS
10
97.7272
20
-49.9577
11
97.5192
21
-50.1657
0
LINE
8
BLACK
6
CONTINUOUS
10
97.5192
20
-50.1657
11
97.3558
21
-50.4103
0
LINE
8
BLACK
6
CONTINUOUS
10
97.3558
20
-50.4103
11
97.2433
21
-50.682
0
LINE
8
BLACK
6
CONTINUOUS
10
97.2433
20
-50.682
11
97.1859
21
-50.9704
0
LINE
8
BLACK
6
CONTINUOUS
10
97.1859
20
-50.9704
11
97.1859
21
-51.2646
0
LINE
8
BLACK
6
CONTINUOUS
10
97.1859
20
-51.2646
11
97.2433
21
-51.553
  0
ENDSEC
  0
EOF
